<svg xmlns="http://www.w3.org/2000/svg" width="30" height="30" fill="none" viewBox="0 0 30 30">
  <path fill="#fff" d="M15 1.2C7.387 1.2 1.2 7.387 1.2 15S7.387 28.8 15 28.8 28.8 22.613 28.8 15 22.613 1.2 15 1.2Zm0 1.2c6.964 0 12.6 5.636 12.6 12.6 0 .043-.003.085-.004.128a23.89 23.89 0 0 0-1.39-.09 35.584 35.584 0 0 0-2.942.037 6.49 6.49 0 0 0 .073-.899c.058-1.123-.32-2.175-.933-3.103.148-.512.322-1.164.366-1.903.05-.843-.024-1.777-.7-2.408l-.174-.162h-.236c-1.61 0-2.712.674-3.386 1.208A9.015 9.015 0 0 0 15 7.2a9.491 9.491 0 0 0-3.332.61C10.995 7.277 9.892 6.6 8.28 6.6h-.235l-.173.16c-.66.612-.72 1.521-.679 2.36.036.739.2 1.411.346 1.948-.624.947-.999 2.025-.999 3.092 0 .307.029.606.07.9a35.751 35.751 0 0 0-2.815-.032 22.4 22.4 0 0 0-1.391.09c0-.04-.004-.079-.004-.118C2.4 8.036 8.036 2.4 15 2.4ZM8.638 7.879c1.21.114 2.121.655 2.543 1.03l.281.248.347-.142A8.293 8.293 0 0 1 15 8.4c1.184 0 2.242.226 3.12.61l.351.154.287-.255c.422-.375 1.334-.916 2.546-1.03.16.267.3.646.267 1.22-.04.688-.225 1.437-.364 1.881l-.09.29.18.245c.593.81.896 1.686.844 2.612v.033c0 1.497-.54 2.695-1.688 3.583-1.149.888-2.961 1.457-5.513 1.457-2.551 0-4.365-.569-5.513-1.457-1.149-.888-1.687-2.086-1.687-3.583 0-.88.318-1.846.904-2.645l.176-.24-.085-.284c-.139-.473-.31-1.239-.343-1.93-.028-.575.108-.939.246-1.182ZM5.33 15.613c.424.005.91.028 1.397.053.046.187.1.37.164.55-1.985.042-3.47.242-4.384.413-.039-.3-.07-.603-.087-.91.676-.064 1.63-.122 2.91-.106Zm19.338.01c1.28-.017 2.232.042 2.909.106-.017.302-.048.6-.086.896-.948-.174-2.472-.373-4.508-.405.063-.176.116-.357.162-.54a38.361 38.361 0 0 1 1.523-.058ZM7.147 16.811c.358.717.87 1.358 1.546 1.88.924.715 2.126 1.215 3.593 1.482a4.723 4.723 0 0 0-.521.642l-.037-.032c.003-.003-.298.148-.749.188-.45.04-1.006.028-1.499.028-.735 0-1.058-.347-1.576-.98a4.258 4.258 0 0 0-.975-.936c-.347-.243-.643-.415-1.01-.476l-.05-.008h-.05c-.28 0-.55.02-.803.31a.766.766 0 0 0-.157.638c.056.227.2.366.328.451.82.547.965 1.629 1.479 2.591.48.957 1.515 1.41 2.574 1.41h1.56v2.882a12.601 12.601 0 0 1-8.2-9.66c.918-.173 2.456-.381 4.547-.41Zm15.583.004c2.137.019 3.719.226 4.672.402a12.602 12.602 0 0 1-8.202 9.664V23.76c0-.951-.312-2-.855-2.874a4.513 4.513 0 0 0-.576-.741c1.39-.275 2.53-.766 3.419-1.452a5.402 5.402 0 0 0 1.542-1.877Zm-8.51 3.644h1.68c.488 0 1.008.388 1.425 1.06.417.67.675 1.57.675 2.24v3.48a12.65 12.65 0 0 1-6 0v-3.48c0-.655.28-1.553.725-2.227.445-.673 1.007-1.073 1.495-1.073Zm-6.835.709c.52.539 1.149 1.031 2.095 1.031.468 0 1.051.017 1.606-.033l.006-.001c-.073.21-.128.421-.174.634H9.24c-.74 0-1.263-.267-1.503-.749l-.005-.008-.003-.007c-.1-.183-.229-.55-.344-.867Z"/>
</svg>
