<svg xmlns="http://www.w3.org/2000/svg" width="30" height="30" fill="none" viewBox="0 0 30 30">
  <path fill="#fff" d="M9.6 1.8c-4.3 0-7.8 3.5-7.8 7.8v10.8c0 4.3 3.5 7.8 7.8 7.8h10.8c4.3 0 7.8-3.5 7.8-7.8V9.6c0-4.3-3.5-7.8-7.8-7.8H9.6Zm0 1.2h10.8C24.052 3 27 5.948 27 9.6v10.8c0 3.652-2.948 6.6-6.6 6.6H9.6A6.591 6.591 0 0 1 3 20.4V9.6C3 5.948 5.948 3 9.6 3Zm12.6 3.6a1.2 1.2 0 1 0 0 2.4 1.2 1.2 0 0 0 0-2.4ZM15 8.4A6.61 6.61 0 0 0 8.4 15a6.61 6.61 0 0 0 6.6 6.6 6.61 6.61 0 0 0 6.6-6.6A6.61 6.61 0 0 0 15 8.4Zm0 1.2c2.99 0 5.4 2.41 5.4 5.4s-2.41 5.4-5.4 5.4A5.39 5.39 0 0 1 9.6 15c0-2.99 2.41-5.4 5.4-5.4Z"/>
</svg>
