<svg xmlns="http://www.w3.org/2000/svg" width="30" height="30" fill="none" viewBox="0 0 30 30">
  <path fill="#fff" d="M5.4 2.4c-1.65 0-3 1.35-3 3v19.2c0 1.65 1.35 3 3 3h19.2c1.65 0 3-1.35 3-3V5.4c0-1.65-1.35-3-3-3H5.4Zm0 1.2h19.2c1.001 0 1.8.799 1.8 1.8v19.2c0 1.001-.799 1.8-1.8 1.8H5.4c-1.001 0-1.8-.799-1.8-1.8V5.4c0-1.001.799-1.8 1.8-1.8Zm3 3.007c-.657 0-1.248.196-1.686.565a1.978 1.978 0 0 0-.707 1.508c0 1.12.972 1.994 2.208 2.08l.002.001c.06.02.12.031.183.032 1.364 0 2.393-.955 2.393-2.113l-.001-.032C10.73 7.508 9.714 6.607 8.4 6.607Zm0 1.186c.835 0 1.165.373 1.201.902-.007.514-.325.912-1.201.912-.831 0-1.207-.426-1.207-.927 0-.25.091-.44.284-.601.192-.162.5-.286.923-.286ZM6.6 11.4a.6.6 0 0 0-.6.6v11.4a.6.6 0 0 0 .6.6h3.6a.6.6 0 0 0 .6-.6V12a.6.6 0 0 0-.6-.6H6.6Zm5.4 0a.6.6 0 0 0-.6.6v11.4a.6.6 0 0 0 .6.6h3.6a.6.6 0 0 0 .6-.6v-6c0-.498.136-.993.375-1.317.24-.324.54-.519 1.114-.509.592.01.905.213 1.142.531.237.318.369.795.369 1.295v6a.6.6 0 0 0 .6.6h3.6a.6.6 0 0 0 .6-.6v-6.443c0-1.777-.526-3.184-1.428-4.137-.903-.952-2.157-1.42-3.485-1.42a5.237 5.237 0 0 0-2.887.854V12a.6.6 0 0 0-.6-.6H12Zm-4.8 1.2h2.4v10.2H7.2V12.6Zm5.4 0H15v.936a.6.6 0 0 0 1.08.361s.942-1.297 3.008-1.297c1.052 0 1.954.35 2.613 1.045.659.696 1.099 1.768 1.099 3.312V22.8h-2.4v-5.4c0-.7-.168-1.424-.606-2.012-.438-.588-1.175-.998-2.083-1.014-.914-.016-1.662.402-2.102.997-.439.596-.609 1.327-.609 2.029v5.4h-2.4V12.6Z"/>
</svg>
